{"accessors":[{"bufferView":2,"componentType":5126,"count":2347,"max":[5.284575462341309,6.193944931030273,3.777988910675049],"min":[-3.3876988887786865,-4.204183578491211,-1.5227341651916504],"type":"VEC3"},{"bufferView":2,"byteOffset":28164,"componentType":5126,"count":2347,"max":[1,1,1],"min":[-1,-1,-1],"type":"VEC3"},{"bufferView":1,"componentType":5126,"count":2347,"max":[1,1],"min":[0,0],"type":"VEC2"},{"bufferView":0,"componentType":5125,"count":8856,"type":"SCALAR"},{"bufferView":2,"byteOffset":56328,"componentType":5126,"count":224,"max":[4.181934356689453,-2.1949634552001953,0.22783735394477844],"min":[2.435011148452759,-4.171892166137695,-1.046944499015808],"type":"VEC3"},{"bufferView":2,"byteOffset":59016,"componentType":5126,"count":224,"max":[0.9692036509513855,0.9794279932975769,0.9968881607055664],"min":[-0.9692036509513855,-0.9794279932975769,-0.9968881607055664],"type":"VEC3"},{"bufferView":1,"byteOffset":18776,"componentType":5126,"count":224,"max":[0.2499999701976776,0.7138845324516296],"min":[0,0.6028064489364624],"type":"VEC2"},{"bufferView":0,"byteOffset":35424,"componentType":5125,"count":768,"type":"SCALAR"},{"bufferView":2,"byteOffset":61704,"componentType":5126,"count":728,"max":[1.228633165359497,3.3529467582702637,5.543900012969971],"min":[-3.506462812423706,-1.492398738861084,0.8295111656188965],"type":"VEC3"},{"bufferView":2,"byteOffset":70440,"componentType":5126,"count":728,"max":[0.994034469127655,0.9989174008369446,0.9966215491294861],"min":[-0.9940349459648132,-0.9989174008369446,-0.9966215491294861],"type":"VEC3"},{"bufferView":1,"byteOffset":20568,"componentType":5126,"count":728,"max":[0.2450784146785736,0.9883477091789246],"min":[0.004921623971313238,0.5233694911003113],"type":"VEC2"},{"bufferView":0,"byteOffset":38496,"componentType":5125,"count":2640,"type":"SCALAR"},{"bufferView":2,"byteOffset":79176,"componentType":5126,"count":441,"max":[4.937268257141113,6.193944931030273,5.4447736740112305],"min":[-3.4551613330841064,-1.4194319248199463,-0.9061793088912964],"type":"VEC3"},{"bufferView":2,"byteOffset":84468,"componentType":5126,"count":441,"max":[0.994034469127655,0.9955633282661438,0.9940465688705444],"min":[-0.9940349459648132,-0.9955633282661438,-0.9940465688705444],"type":"VEC3"},{"bufferView":1,"byteOffset":26392,"componentType":5126,"count":441,"max":[0.9666668176651001,0.9883477091789246],"min":[0.0049226973205804825,0.05773570016026497],"type":"VEC2"},{"bufferView":0,"byteOffset":49056,"componentType":5125,"count":1068,"type":"SCALAR"},{"bufferView":2,"byteOffset":89760,"componentType":5126,"count":396,"max":[0.6787774562835693,-1.1253674030303955,2.318455219268799],"min":[-1.341780424118042,-3.1788082122802734,0.2618635594844818],"type":"VEC3"},{"bufferView":2,"byteOffset":94512,"componentType":5126,"count":396,"max":[0.9860836267471313,0.9989936351776123,0.9892101883888245],"min":[-0.9847085475921631,-0.9986347556114197,-0.9892101883888245],"type":"VEC3"},{"bufferView":1,"byteOffset":29920,"componentType":5126,"count":396,"max":[0.4999999701976776,0.5],"min":[0,0],"type":"VEC2"},{"bufferView":0,"byteOffset":53328,"componentType":5125,"count":1320,"type":"SCALAR"},{"bufferView":2,"byteOffset":99264,"componentType":5126,"count":257,"max":[-1.3165953159332275,-1.360757827758789,3.325814962387085],"min":[-3.420691728591919,-3.419437885284424,1.2175068855285645],"type":"VEC3"},{"bufferView":2,"byteOffset":102348,"componentType":5126,"count":257,"max":[0.9945114254951477,0.981578528881073,0.997175931930542],"min":[-0.9945114254951477,-0.981578528881073,-0.997175931930542],"type":"VEC3"},{"bufferView":1,"byteOffset":33088,"componentType":5126,"count":257,"max":[1,1],"min":[0,0.5],"type":"VEC2"},{"bufferView":0,"byteOffset":58608,"componentType":5125,"count":864,"type":"SCALAR"},{"bufferView":2,"byteOffset":105432,"componentType":5126,"count":369,"max":[5.547293663024902,1.3958840370178223,2.43578839302063],"min":[0.6524808406829834,-2.0503926277160645,-1.5227341651916504],"type":"VEC3"},{"bufferView":2,"byteOffset":109860,"componentType":5126,"count":369,"max":[0.986992359161377,0.9950730800628662,0.9993361234664917],"min":[-0.9869918823242188,-0.9950730800628662,-0.9993361234664917],"type":"VEC3"},{"bufferView":1,"byteOffset":35144,"componentType":5126,"count":369,"max":[0.9981224536895752,0.9609878063201904],"min":[0,0.5],"type":"VEC2"},{"bufferView":0,"byteOffset":62064,"componentType":5125,"count":1224,"type":"SCALAR"}],"asset":{"extras":{"author":"Liberi Arcano (https://sketchfab.com/LiberiArcano)","license":"CC-BY-4.0 (http://creativecommons.org/licenses/by/4.0/)","source":"https://sketchfab.com/3d-models/3december-2021-day-13-sport-40d2e7afca9f4d3d94cd16038a190333","title":"3December 2021 Day 13: Sport"},"generator":"Sketchfab-12.66.0","version":"2.0"},"bufferViews":[{"buffer":0,"byteLength":66960,"name":"floatBufferViews","target":34963},{"buffer":0,"byteLength":38096,"byteOffset":66960,"byteStride":8,"name":"floatBufferViews","target":34962},{"buffer":0,"byteLength":114288,"byteOffset":105056,"byteStride":12,"name":"floatBufferViews","target":34962}],"buffers":[{"byteLength":219344,"uri":"data:application/octet-stream;base64,"}],"materials":[{"doubleSided":true,"name":"Baseball_Base","pbrMetallicRoughness":{"metallicFactor":0}},{"doubleSided":true,"name":"Baseball_Lines","pbrMetallicRoughness":{"baseColorFactor":[0.635092,0.00965198,0,1],"metallicFactor":0}},{"doubleSided":true,"name":"Basketball_Base","pbrMetallicRoughness":{"baseColorFactor":[1,0.18924500000000005,0.009717459999999994,1],"metallicFactor":0}},{"doubleSided":true,"name":"Basketball_Lines","pbrMetallicRoughness":{"baseColorFactor":[0.0220845,0.0220845,0.0220845,1],"metallicFactor":0}},{"doubleSided":true,"name":"Tennis_Base","pbrMetallicRoughness":{"baseColorFactor":[0.575317,0.8,0.124419,1],"metallicFactor":0}},{"doubleSided":true,"name":"Cricket_Base","pbrMetallicRoughness":{"baseColorFactor":[0.418851,0.014891300000000003,0.027223299999999964,1],"metallicFactor":0}},{"doubleSided":true,"name":"AFootball_Base","pbrMetallicRoughness":{"baseColorFactor":[0.23698899999999998,0.030381199999999983,0.015166399999999995,1],"metallicFactor":0}}],"meshes":[{"name":"Sphere.001_Baseball_Base_0","primitives":[{"attributes":{"NORMAL":1,"POSITION":0,"TEXCOORD_0":2},"indices":3,"material":0,"mode":4}]},{"name":"Sphere.001_Baseball_Lines_0","primitives":[{"attributes":{"NORMAL":5,"POSITION":4,"TEXCOORD_0":6},"indices":7,"material":1,"mode":4}]},{"name":"Sphere.001_Basketball_Base_0","primitives":[{"attributes":{"NORMAL":9,"POSITION":8,"TEXCOORD_0":10},"indices":11,"material":2,"mode":4}]},{"name":"Sphere.001_Basketball_Lines_0","primitives":[{"attributes":{"NORMAL":13,"POSITION":12,"TEXCOORD_0":14},"indices":15,"material":3,"mode":4}]},{"name":"Sphere.001_Tennis_Base_0","primitives":[{"attributes":{"NORMAL":17,"POSITION":16,"TEXCOORD_0":18},"indices":19,"material":4,"mode":4}]},{"name":"Sphere.001_Cricket_Base_0","primitives":[{"attributes":{"NORMAL":21,"POSITION":20,"TEXCOORD_0":22},"indices":23,"material":5,"mode":4}]},{"name":"Sphere.001_AFootball_Base_0","primitives":[{"attributes":{"NORMAL":25,"POSITION":24,"TEXCOORD_0":26},"indices":27,"material":6,"mode":4}]}],"nodes":[{"children":[1],"matrix":[1,0,0,0,0,2.220446049250313e-16,-1,0,0,1,2.220446049250313e-16,0,0,0,0,1],"name":"Sketchfab_model"},{"children":[2],"matrix":[0.009999999776482582,0,0,0,0,0,0.009999999776482582,0,0,-0.009999999776482582,0,0,0,0,0,1],"name":"0a18f5d2894346109a7dc5c153da8c68.fbx"},{"children":[3],"name":"RootNode"},{"children":[4,5,6,7,8,9,10],"matrix":[34.79473177728163,17.326422601227264,-13.63661902523907,0,-15.030929650153498,0.00000333786455337265,-38.35240294819777,0,-16.13175143155553,37.37151962683724,6.322298656750503,0,0.000011920928955078125,0,0,1],"name":"Sphere.001"},{"mesh":0,"name":"Sphere.001_Baseball_Base_0"},{"mesh":1,"name":"Sphere.001_Baseball_Lines_0"},{"mesh":2,"name":"Sphere.001_Basketball_Base_0"},{"mesh":3,"name":"Sphere.001_Basketball_Lines_0"},{"mesh":4,"name":"Sphere.001_Tennis_Base_0"},{"mesh":5,"name":"Sphere.001_Cricket_Base_0"},{"mesh":6,"name":"Sphere.001_AFootball_Base_0"}],"scene":0,"scenes":[{"name":"Sketchfab_Scene","nodes":[0]}]}